<svg width="19" height="19" viewBox="0 0 19 19" fill="none" xmlns="http://www.w3.org/2000/svg">
<path d="M9.375 17.1875C13.6897 17.1875 17.1875 13.6897 17.1875 9.375C17.1875 5.06028 13.6897 1.5625 9.375 1.5625C5.06028 1.5625 1.5625 5.06028 1.5625 9.375C1.5625 13.6897 5.06028 17.1875 9.375 17.1875Z" stroke="#101828" stroke-width="1.5625" stroke-linecap="round" stroke-linejoin="round"/>
<path d="M9.375 12.5C11.1009 12.5 12.5 11.1009 12.5 9.375C12.5 7.64911 11.1009 6.25 9.375 6.25C7.64911 6.25 6.25 7.64911 6.25 9.375C6.25 11.1009 7.64911 12.5 9.375 12.5Z" stroke="#101828" stroke-width="1.5625" stroke-linecap="round" stroke-linejoin="round"/>
<path d="M16.5391 6.25H9.375" stroke="#101828" stroke-width="1.5625" stroke-linecap="round" stroke-linejoin="round"/>
<path d="M3.08594 4.73438L6.67188 10.9375" stroke="#101828" stroke-width="1.5625" stroke-linecap="round" stroke-linejoin="round"/>
<path d="M8.5 17.1406L12.0781 10.9375" stroke="#101828" stroke-width="1.5625" stroke-linecap="round" stroke-linejoin="round"/>
</svg>
