<svg width="19" height="19" viewBox="0 0 19 19" fill="none" xmlns="http://www.w3.org/2000/svg">
<g opacity="0.8">
<path d="M7.8125 9.375H10.9375" stroke="#3C2E25" stroke-width="1.5625" stroke-linecap="round" stroke-linejoin="round"/>
<path d="M7.8125 6.25H10.9375" stroke="#3C2E25" stroke-width="1.5625" stroke-linecap="round" stroke-linejoin="round"/>
<path d="M10.9375 16.4141V14.0703C10.9375 13.6559 10.7729 13.2585 10.4799 12.9655C10.1868 12.6724 9.7894 12.5078 9.375 12.5078C8.9606 12.5078 8.56317 12.6724 8.27015 12.9655C7.97712 13.2585 7.8125 13.6559 7.8125 14.0703V16.4141" stroke="#3C2E25" stroke-width="1.5625" stroke-linecap="round" stroke-linejoin="round"/>
<path d="M4.6875 7.82031H3.125C2.7106 7.82031 2.31317 7.98493 2.02015 8.27796C1.72712 8.57098 1.5625 8.96841 1.5625 9.38281V14.8516C1.5625 15.266 1.72712 15.6634 2.02015 15.9564C2.31317 16.2494 2.7106 16.4141 3.125 16.4141H15.625C16.0394 16.4141 16.4368 16.2494 16.7299 15.9564C17.0229 15.6634 17.1875 15.266 17.1875 14.8516V7.03906C17.1875 6.62466 17.0229 6.22723 16.7299 5.93421C16.4368 5.64118 16.0394 5.47656 15.625 5.47656H14.0625" stroke="#3C2E25" stroke-width="1.5625" stroke-linecap="round" stroke-linejoin="round"/>
<path d="M4.6875 16.4062V3.90625C4.6875 3.49185 4.85212 3.09442 5.14515 2.8014C5.43817 2.50837 5.8356 2.34375 6.25 2.34375H12.5C12.9144 2.34375 13.3118 2.50837 13.6049 2.8014C13.8979 3.09442 14.0625 3.49185 14.0625 3.90625V16.4062" stroke="#3C2E25" stroke-width="1.5625" stroke-linecap="round" stroke-linejoin="round"/>
</g>
</svg>
