<svg width="19" height="19" viewBox="0 0 19 19" fill="none" xmlns="http://www.w3.org/2000/svg">
<path d="M17.187 13.2188V15.5626C17.1879 15.7802 17.1433 15.9955 17.0562 16.1949C16.969 16.3942 16.8411 16.5732 16.6808 16.7203C16.5205 16.8674 16.3312 16.9794 16.1251 17.0491C15.919 17.1188 15.7006 17.1447 15.4839 17.1251C13.0798 16.8639 10.7706 16.0424 8.74169 14.7266C6.85406 13.5272 5.25367 11.9268 4.05419 10.0391C2.73386 8.00102 1.9122 5.68054 1.65576 3.2657C1.63623 3.04966 1.66191 2.83192 1.73115 2.62634C1.80038 2.42077 1.91167 2.23186 2.05792 2.07165C2.20416 1.91145 2.38217 1.78344 2.58059 1.6958C2.77902 1.60815 2.99352 1.56278 3.21044 1.56258H5.55419C5.93334 1.55884 6.30091 1.69311 6.58838 1.94034C6.87586 2.18757 7.06363 2.53089 7.11669 2.90633C7.21562 3.65638 7.39908 4.39283 7.66357 5.10164C7.76868 5.38127 7.79143 5.68517 7.72912 5.97733C7.66681 6.26949 7.52205 6.53766 7.31201 6.75008L6.31982 7.74226C7.43197 9.69816 9.05142 11.3176 11.0073 12.4298L11.9995 11.4376C12.2119 11.2275 12.4801 11.0828 12.7723 11.0205C13.0644 10.9582 13.3683 10.9809 13.6479 11.086C14.3567 11.3505 15.0932 11.534 15.8433 11.6329C16.2228 11.6864 16.5694 11.8776 16.8171 12.17C17.0649 12.4624 17.1965 12.8357 17.187 13.2188Z" stroke="white" stroke-width="1.5625" stroke-linecap="round" stroke-linejoin="round"/>
</svg>
