<svg width="19" height="19" viewBox="0 0 19 19" fill="none" xmlns="http://www.w3.org/2000/svg">
<path d="M12.5 6.25C13.7432 6.25 14.9355 6.74386 15.8146 7.62294C16.6936 8.50201 17.1875 9.6943 17.1875 10.9375V16.4062H14.0625V10.9375C14.0625 10.5231 13.8979 10.1257 13.6049 9.83265C13.3118 9.53962 12.9144 9.375 12.5 9.375C12.0856 9.375 11.6882 9.53962 11.3951 9.83265C11.1021 10.1257 10.9375 10.5231 10.9375 10.9375V16.4062H7.8125V10.9375C7.8125 9.6943 8.30636 8.50201 9.18544 7.62294C10.0645 6.74386 11.2568 6.25 12.5 6.25Z" fill="#101828" stroke="#101828" stroke-width="1.5625" stroke-linecap="round" stroke-linejoin="round"/>
<path d="M4.6875 7.03125H1.5625V16.4062H4.6875V7.03125Z" fill="#101828" stroke="#101828" stroke-width="1.5625" stroke-linecap="round" stroke-linejoin="round"/>
<path d="M3.125 4.6875C3.98795 4.6875 4.6875 3.98795 4.6875 3.125C4.6875 2.26206 3.98795 1.5625 3.125 1.5625C2.26206 1.5625 1.5625 2.26206 1.5625 3.125C1.5625 3.98795 2.26206 4.6875 3.125 4.6875Z" fill="#101828" stroke="#101828" stroke-width="1.5625" stroke-linecap="round" stroke-linejoin="round"/>
</svg>
