<svg width="19" height="19" viewBox="0 0 19 19" fill="none" xmlns="http://www.w3.org/2000/svg">
<path d="M13.2812 1.5625H5.46875C3.31139 1.5625 1.5625 3.31139 1.5625 5.46875V13.2812C1.5625 15.4386 3.31139 17.1875 5.46875 17.1875H13.2812C15.4386 17.1875 17.1875 15.4386 17.1875 13.2812V5.46875C17.1875 3.31139 15.4386 1.5625 13.2812 1.5625Z" stroke="#101828" stroke-width="1.5625" stroke-linecap="round" stroke-linejoin="round"/>
<path d="M12.4994 8.87755C12.5958 9.52775 12.4848 10.1918 12.182 10.7752C11.8793 11.3587 11.4003 11.8318 10.8132 12.1273C10.2261 12.4228 9.56069 12.5257 8.91174 12.4213C8.26278 12.3168 7.66328 12.0104 7.1985 11.5456C6.73372 11.0809 6.42732 10.4814 6.3229 9.83241C6.21847 9.18346 6.32133 8.5181 6.61685 7.93097C6.91236 7.34385 7.38549 6.86485 7.96892 6.56212C8.55236 6.25938 9.2164 6.14833 9.86659 6.24474C10.5298 6.34309 11.1438 6.65214 11.6179 7.12623C12.092 7.60033 12.4011 8.21433 12.4994 8.87755Z" stroke="#101828" stroke-width="1.5625" stroke-linecap="round" stroke-linejoin="round"/>
<path d="M13.6719 5.07812H13.6802" stroke="#101828" stroke-width="1.5625" stroke-linecap="round" stroke-linejoin="round"/>
</svg>
