<svg width="50" height="55" viewBox="0 0 50 55" fill="none" xmlns="http://www.w3.org/2000/svg">
<g filter="url(#filter0_d_13_5526)">
<path d="M25.1961 4.83354C25.1961 4.86576 25.1961 4.89799 25.1961 4.93119C25.0757 5.02267 24.9548 5.10871 24.8299 5.19365C24.7531 5.2469 24.6764 5.30024 24.5997 5.35367C24.5605 5.38092 24.5214 5.40816 24.4811 5.43624C23.7355 5.96054 23.0174 6.52825 22.3511 7.15039C22.2248 7.26818 22.0965 7.38317 21.9674 7.49772C20.7517 8.59275 19.5866 10.099 19.4879 11.8022C19.339 15.3177 21.2718 18.391 23.3406 21.0933C23.3843 21.1508 23.428 21.2084 23.4717 21.2659C23.7432 21.6222 24.0209 21.9736 24.2981 22.3254C24.4104 22.468 24.5225 22.6107 24.6346 22.7535C24.7671 22.9221 24.8996 23.0908 25.0323 23.2593C26.6958 25.3728 26.6958 25.3728 27.3495 26.3116C27.4431 26.4459 27.5384 26.5786 27.6356 26.7103C28.62 28.0455 29.5 29.4648 30.2972 30.9185C30.3603 31.0332 30.4242 31.1473 30.4886 31.2612C31.2682 32.6603 31.8711 34.2193 32.1785 35.7906C32.1865 35.8304 32.1944 35.8702 32.2025 35.9112C32.5757 37.8634 32.2592 39.8574 31.1592 41.5218C30.4626 42.542 29.5759 43.4315 28.5653 44.1402C28.5137 44.1768 28.5137 44.1768 28.4611 44.2142C26.6019 45.5275 23.9147 46.7921 21.5828 46.6792C21.6566 46.4734 21.8052 46.3836 21.9796 46.2673C22.3548 46.0083 22.7058 45.724 23.057 45.4336C23.1348 45.3696 23.2133 45.3064 23.2918 45.2434C23.6491 44.9567 23.9863 44.6519 24.3172 44.3355C24.3488 44.3053 24.3804 44.2751 24.4129 44.244C24.8607 43.8132 25.2678 43.3717 25.6356 42.8706C25.6663 42.8299 25.6971 42.7891 25.7288 42.7471C26.6591 41.4757 27.0823 40.0316 26.8532 38.4639C26.6461 37.2315 26.1656 36.0564 25.5862 34.955C25.5367 34.8605 25.4883 34.7654 25.4401 34.6702C24.9699 33.7519 24.4122 32.8807 23.8289 32.0308C23.7842 31.9655 23.7842 31.9655 23.7385 31.8988C23.0492 30.8948 22.3236 29.9211 21.5828 28.9546C21.5365 28.894 21.4901 28.8335 21.4438 28.7729C21.0517 28.261 20.6544 27.7538 20.2462 27.2548C19.9448 26.8859 19.6549 26.5089 19.3673 26.1293C19.2883 26.0255 19.2089 25.9222 19.1292 25.819C16.8682 22.8874 14.7921 19.4015 14.7875 15.582C14.7874 15.5331 14.7872 15.4841 14.787 15.4337C14.7868 15.3307 14.7867 15.2276 14.7867 15.1246C14.7866 14.9703 14.7857 14.8161 14.7848 14.6618C14.7823 13.8053 14.8227 12.9716 15.0399 12.1394C15.0526 12.0881 15.0653 12.0367 15.0784 11.9838C15.1381 11.7454 15.2012 11.5105 15.284 11.2789C14.8723 11.5272 14.5196 11.8403 14.161 12.1578C14.1353 12.1803 14.1097 12.2027 14.0832 12.2259C13.5005 12.7383 12.9806 13.3062 12.5008 13.9156C12.4457 13.984 12.4457 13.984 12.3894 14.0539C10.6185 16.2933 9.57788 18.9624 9.18049 21.7769C9.17408 21.8216 9.16766 21.8662 9.16106 21.9123C8.70481 25.2717 9.51803 28.8149 11.0848 31.7867C11.1139 31.8426 11.1139 31.8426 11.1436 31.8996C12.0508 33.6329 13.3643 35.3479 14.909 36.5657C15.0456 36.674 15.1766 36.7875 15.3084 36.9014C17.7766 38.9598 21.0047 40.0495 24.1944 40.1107C24.2912 40.1127 24.3881 40.1152 24.4849 40.1178C24.5418 40.119 24.5987 40.1202 24.6574 40.1215C24.7983 40.1356 24.8814 40.1606 25.0008 40.2339C24.7489 41.4403 24.0544 42.3964 23.224 43.2749C23.1335 43.3716 23.0444 43.4695 22.9554 43.5676C22.8895 43.6394 22.8236 43.7113 22.7578 43.7831C22.7266 43.8177 22.6954 43.8523 22.6632 43.8879C22.6187 43.936 22.6187 43.936 22.5733 43.9851C22.5471 44.0139 22.5208 44.0426 22.4938 44.0722C22.3494 44.1935 22.2422 44.1903 22.0558 44.1805C21.9918 44.1736 21.9279 44.1667 21.8621 44.1596C21.8095 44.154 21.8095 44.154 21.756 44.1483C21.6412 44.1359 21.5266 44.1229 21.4119 44.1097C21.3725 44.1052 21.3331 44.1007 21.2925 44.0961C17.7741 43.6926 14.5694 42.4237 11.8172 40.1851C11.7908 40.1639 11.7644 40.1426 11.7372 40.1208C11.2658 39.7386 10.8369 39.3127 10.4073 38.8851C10.3789 38.8569 10.3505 38.8287 10.3212 38.7997C9.96602 38.447 9.63859 38.087 9.32697 37.6949C9.28194 37.6422 9.23656 37.5898 9.1906 37.5379C6.92531 34.9622 5.55565 31.4903 4.9416 28.1551C4.92732 28.0787 4.92732 28.0787 4.91275 28.0008C4.74502 27.0388 4.71716 26.0715 4.71882 25.0972C4.71884 25.0382 4.71887 24.9793 4.7189 24.9185C4.72076 24.0177 4.75613 23.1508 4.93244 22.2652C4.94814 22.1828 4.94814 22.1828 4.96415 22.0987C5.48899 19.3882 6.65338 16.7588 8.37413 14.5948C8.44516 14.5052 8.51515 14.4148 8.58482 14.3241C9.34436 13.3385 10.1876 12.382 11.1336 11.5718C11.1834 11.5282 11.2331 11.4845 11.2828 11.4408C12.9389 9.9916 14.9255 8.78458 17.026 8.11322C17.063 8.10139 17.1001 8.08955 17.1382 8.07735C17.1944 8.05941 17.1944 8.05941 17.2517 8.0411C18.0215 7.79519 18.7079 7.51842 19.4064 7.10443C19.6008 6.99054 19.7994 6.88508 19.999 6.78056C20.0362 6.76103 20.0735 6.7415 20.1119 6.72138C23.7947 4.80659 23.7947 4.80659 25.1961 4.83354Z" fill="#303030" fill-opacity="0.9"/>
<path d="M26.9043 7.42413C26.9577 7.43501 27.0111 7.44589 27.0661 7.4571C30.067 8.08125 33.0132 9.48326 35.4492 11.3304C35.4798 11.3535 35.5103 11.3767 35.5418 11.4005C36.6287 12.2291 37.6954 13.1617 38.5742 14.2112C38.6135 14.2565 38.6528 14.3017 38.6932 14.3484C41.9718 18.139 43.5862 23.1299 43.2281 28.112C43.0593 30.1029 42.5238 32.0924 41.6504 33.889C41.6344 33.9223 41.6185 33.9556 41.602 33.9899C41.4921 34.2189 41.3776 34.4452 41.2598 34.6702C41.2301 34.7268 41.2301 34.7268 41.1999 34.7846C40.5915 35.9388 39.8483 37.0193 38.9892 38.0018C38.9331 38.068 38.8785 38.1354 38.8246 38.2034C38.5466 38.5525 38.247 38.87 37.9305 39.1841C37.848 39.2661 37.766 39.3486 37.6841 39.4312C37.3612 39.7544 37.0297 40.052 36.6699 40.3343C36.6123 40.3808 36.5547 40.4274 36.4971 40.4741C35.4239 41.3259 34.2803 42.0144 33.0566 42.6292C33.0178 42.6488 32.979 42.6685 32.939 42.6887C32.8372 42.7399 32.735 42.7901 32.6324 42.8398C32.5769 42.8668 32.5213 42.8938 32.464 42.9216C32.3218 42.9719 32.2659 42.9792 32.1289 42.9222C32.1585 42.8754 32.1881 42.8286 32.2186 42.7805C32.3292 42.605 32.4389 42.4288 32.5481 42.2524C32.5922 42.1812 32.6366 42.11 32.6812 42.039C33.4133 40.8683 33.8474 39.5907 34.082 38.2347C34.0879 38.2011 34.0938 38.1675 34.0999 38.1328C34.1301 37.9204 34.1312 37.7127 34.1264 37.4982C34.1231 37.3457 34.1218 37.1931 34.1205 37.0406C34.1193 36.9619 34.117 36.8834 34.1136 36.8048C34.088 36.1679 34.088 36.168 34.2403 35.9511C34.3875 35.7957 34.555 35.6765 34.7328 35.5588C35.1008 35.2953 35.402 34.9162 35.6934 34.5726C35.7317 34.5294 35.77 34.4862 35.8095 34.4417C36.4692 33.6922 37.0056 32.8497 37.5 31.9847C37.5195 31.951 37.5391 31.9172 37.5592 31.8825C39.355 28.7604 39.6883 24.9288 38.7794 21.4857C37.9496 18.4504 36.1502 15.5675 33.7402 13.5276C33.6959 13.4887 33.6516 13.4498 33.606 13.4098C32.5547 12.4927 31.3692 11.808 30.127 11.1839C30.0725 11.1563 30.0725 11.1563 30.017 11.1282C27.6631 9.94517 25.1058 9.48761 22.5098 9.23077C22.5889 9.0626 22.677 8.957 22.8119 8.82793C22.9493 8.69374 23.0816 8.55959 23.2056 8.4129C23.39 8.19739 23.5919 8.0007 23.7935 7.80157C23.9343 7.66191 24.0704 7.52177 24.1974 7.36919C24.7428 6.72588 26.1597 7.27029 26.9043 7.42413Z" fill="#303030" fill-opacity="0.9"/>
<path d="M31.1033 3.68979C31.1442 3.68903 31.1851 3.68828 31.2273 3.6875C31.7219 3.69056 32.1176 3.91371 32.4705 4.25131C32.8691 4.7342 32.9586 5.204 32.9196 5.81531C32.8738 6.27 32.5999 6.58591 32.2752 6.88803C31.8238 7.24811 31.3294 7.33393 30.7615 7.27866C30.3105 7.18505 29.9256 6.94096 29.6457 6.57427C29.3383 6.08751 29.2202 5.62056 29.3195 5.04687C29.4441 4.56433 29.7728 4.19355 30.1755 3.90952C30.4844 3.73412 30.7509 3.68328 31.1033 3.68979ZM29.7849 4.59311C29.5869 4.87413 29.5796 5.12656 29.5774 5.45981C29.5764 5.49757 29.5754 5.53534 29.5744 5.57425C29.5714 6.02139 29.7124 6.31702 30.0167 6.64141C30.402 6.99203 30.8045 7.05929 31.3129 7.05397C31.7134 7.01093 32.0251 6.81966 32.2996 6.53098C32.6345 6.10947 32.7316 5.7114 32.6809 5.17702C32.6152 4.76104 32.3661 4.45283 32.0573 4.18398C31.7554 3.99119 31.4644 3.93089 31.1094 3.93393C31.0708 3.93424 31.0323 3.93456 30.9926 3.93488C30.4596 3.95155 30.1238 4.19238 29.7849 4.59311Z" fill="#303030" fill-opacity="0.9"/>
<path d="M31.0726 4.46688C31.1281 4.46508 31.1836 4.46329 31.2408 4.46144C31.6333 4.45937 31.6333 4.45937 31.7808 4.55196C31.962 4.75184 31.9713 4.9436 31.9612 5.19892C31.9297 5.33993 31.8965 5.3888 31.7867 5.48006C31.7383 5.50927 31.69 5.53847 31.6402 5.56856C31.6951 5.65504 31.75 5.74151 31.805 5.82796C31.8356 5.87611 31.8662 5.92426 31.8977 5.97387C31.9574 6.06724 32.0182 6.15994 32.0796 6.25216C32.0796 6.3005 32.0796 6.34884 32.0796 6.39864C31.8896 6.43637 31.731 6.44866 31.5425 6.39864C31.3768 6.22206 31.2685 6.02364 31.1519 5.8127C31.0475 5.70828 30.9989 5.69422 30.8589 5.66622C30.856 5.71091 30.853 5.7556 30.85 5.80164C30.8459 5.85967 30.8418 5.91771 30.8376 5.9775C30.8336 6.03528 30.8297 6.09306 30.8256 6.15259C30.8101 6.30098 30.8101 6.30098 30.7613 6.39864C30.5965 6.40474 30.5965 6.40474 30.4195 6.39864C30.2984 6.27757 30.3094 6.20591 30.307 6.04056C30.3071 6.00521 30.3071 5.96986 30.3071 5.93344C30.3069 5.89708 30.3067 5.86071 30.3065 5.82325C30.3062 5.74629 30.3062 5.66933 30.3064 5.59237C30.3066 5.47458 30.3054 5.35685 30.3042 5.23907C30.3041 5.16433 30.304 5.0896 30.3041 5.01486C30.3036 4.97961 30.3032 4.94436 30.3027 4.90804C30.304 4.76997 30.3069 4.66563 30.3791 4.54575C30.5826 4.42847 30.8444 4.46726 31.0726 4.46688ZM30.7613 4.78731C30.7613 4.96456 30.7613 5.1418 30.7613 5.32442C31.0095 5.33455 31.2095 5.30681 31.4449 5.22677C31.5066 5.17529 31.5066 5.17529 31.5059 5.05892C31.5019 5.01763 31.4979 4.97634 31.4937 4.9338C31.3275 4.82298 31.2415 4.81829 31.0451 4.80562C30.992 4.80197 30.939 4.79832 30.8843 4.79456C30.8234 4.79097 30.8234 4.79097 30.7613 4.78731Z" fill="#303030" fill-opacity="0.9"/>
<path d="M29.5902 4.9375C29.6826 5.12225 29.6363 5.36726 29.6285 5.57207C29.6208 5.99448 29.7385 6.29964 30.0306 6.60624C30.4429 6.98596 30.9093 6.99834 31.4457 7.03711C31.2839 7.14498 31.2335 7.14574 31.0459 7.14087C31.0019 7.13999 30.9579 7.13911 30.9126 7.1382C30.879 7.13707 30.8455 7.13593 30.8109 7.13477C30.8109 7.16699 30.8109 7.19922 30.8109 7.23242C31.0204 7.23242 31.2299 7.23242 31.4457 7.23242C31.4457 7.24854 31.4457 7.26465 31.4457 7.28125C30.8041 7.31497 30.3415 7.2306 29.8454 6.80613C29.4791 6.4327 29.2899 5.96533 29.2881 5.44714C29.2904 5.35862 29.2932 5.2701 29.2972 5.18164C29.3134 5.18164 29.3295 5.18164 29.3461 5.18164C29.3622 5.34277 29.3783 5.50391 29.3949 5.66992C29.411 5.66992 29.4271 5.66992 29.4437 5.66992C29.4502 5.62114 29.4567 5.57236 29.4634 5.5221C29.4763 5.42759 29.4763 5.42759 29.4895 5.33118C29.498 5.2683 29.5065 5.20542 29.5153 5.14063C29.5414 4.98633 29.5414 4.98633 29.5902 4.9375Z" fill="#303030" fill-opacity="0.9"/>
<path d="M31.0541 3.68132C31.0897 3.68078 31.1254 3.68024 31.1621 3.67969C31.3377 3.68445 31.429 3.69903 31.5668 3.8114C31.5909 3.843 31.6151 3.8746 31.64 3.90715C31.5613 3.9063 31.5613 3.9063 31.4811 3.90543C31.411 3.90498 31.3409 3.90453 31.2707 3.9041C31.2363 3.90369 31.2019 3.90328 31.1665 3.90286C30.9447 3.90184 30.7358 3.91946 30.5169 3.95598C30.5169 3.98821 30.5169 4.02043 30.5169 4.05364C30.4328 4.11353 30.4328 4.11353 30.3186 4.18181C30.0105 4.38021 29.6519 4.69996 29.5686 5.07401C29.5532 5.17831 29.5415 5.28233 29.5312 5.38725C29.5272 5.42341 29.5232 5.45957 29.5191 5.49683C29.5094 5.58537 29.5004 5.67399 29.4916 5.76262C29.4432 5.74651 29.3949 5.73039 29.3451 5.71379C29.3143 5.16282 29.3248 4.77507 29.6827 4.32734C30.0671 3.9059 30.4847 3.68818 31.0541 3.68132Z" fill="#303030" fill-opacity="0.9"/>
<path d="M32.8125 5.125C32.8286 5.125 32.8447 5.125 32.8613 5.125C32.8626 5.23791 32.8636 5.35083 32.8644 5.46375C32.8649 5.52662 32.8655 5.5895 32.8661 5.65429C32.8613 5.80859 32.8613 5.80859 32.8125 5.85742C32.8201 5.92993 32.8201 5.92993 32.8278 6.00391C32.8318 6.3304 32.5712 6.59139 32.3639 6.82178C31.9784 7.18054 31.5864 7.24952 31.0785 7.23709C30.9891 7.23378 30.8998 7.22932 30.8105 7.22461C30.8105 7.19238 30.8105 7.16016 30.8105 7.12695C30.849 7.12387 30.8875 7.12079 30.9271 7.11761C31.4468 7.05918 31.9136 6.88724 32.2784 6.49829C32.4327 6.30166 32.5285 6.08964 32.6172 5.85742C32.6353 5.81815 32.6534 5.77887 32.6721 5.7384C32.7403 5.53879 32.7747 5.33221 32.8125 5.125Z" fill="#303030" fill-opacity="0.9"/>
<path d="M32.2266 6.64062C32.2588 6.70508 32.291 6.76953 32.3242 6.83594C31.8574 7.25756 31.4071 7.25122 30.8105 7.22656C30.8105 7.19434 30.8105 7.16211 30.8105 7.12891C30.8501 7.12526 30.8897 7.1216 30.9305 7.11784C31.2882 7.07537 31.5555 6.99621 31.8634 6.80847C31.9815 6.73884 32.0983 6.68828 32.2266 6.64062Z" fill="#303030" fill-opacity="0.9"/>
<path d="M29.5901 4.9375C29.6825 5.12225 29.6362 5.36726 29.6285 5.57207C29.6233 5.85219 29.6783 6.04623 29.7854 6.30469C29.7854 6.35303 29.7854 6.40137 29.7854 6.45117C29.6756 6.45422 29.6756 6.45422 29.5413 6.40234C29.3581 6.10465 29.2903 5.80787 29.2941 5.4624C29.2948 5.38347 29.2948 5.38347 29.2954 5.30295C29.296 5.26292 29.2966 5.22289 29.2971 5.18164C29.3133 5.18164 29.3294 5.18164 29.346 5.18164C29.3621 5.34277 29.3782 5.50391 29.3948 5.66992C29.4109 5.66992 29.427 5.66992 29.4436 5.66992C29.4501 5.62114 29.4566 5.57236 29.4633 5.5221C29.4762 5.42759 29.4762 5.42759 29.4894 5.33118C29.4979 5.2683 29.5064 5.20542 29.5152 5.14063C29.5413 4.98633 29.5413 4.98633 29.5901 4.9375Z" fill="#303030" fill-opacity="0.9"/>
<path d="M29.5409 4.54688C29.6054 4.56299 29.6699 4.5791 29.7363 4.5957C29.6457 4.91914 29.6457 4.91914 29.5867 5.07178C29.5207 5.30054 29.5081 5.53072 29.4921 5.76758C29.4438 5.75146 29.3954 5.73535 29.3456 5.71875C29.3096 4.8939 29.3096 4.8939 29.5409 4.54688Z" fill="#303030" fill-opacity="0.9"/>
<path d="M31.4453 3.71094C31.5166 3.72473 31.5878 3.73908 31.6589 3.75366C31.7184 3.76556 31.7184 3.76556 31.7791 3.77769C31.8848 3.80859 31.8848 3.80859 31.9824 3.90625C31.9502 3.90625 31.918 3.90625 31.8848 3.90625C31.9009 3.9707 31.917 4.03516 31.9336 4.10156C31.8802 4.08558 31.8268 4.06959 31.7719 4.05312C31.5162 3.9892 31.2679 3.9931 31.0059 3.9978C30.9587 3.99824 30.9116 3.99868 30.863 3.99914C30.7478 4.00028 30.6327 4.00188 30.5176 4.00391C30.668 3.85345 30.8141 3.85875 31.0221 3.85265C31.0782 3.85322 31.1342 3.85379 31.192 3.85437C31.2487 3.85481 31.3054 3.85525 31.3639 3.85571C31.4069 3.85627 31.4498 3.85684 31.4941 3.85742C31.478 3.80908 31.4619 3.76074 31.4453 3.71094Z" fill="#303030" fill-opacity="0.9"/>
<path d="M31.134 3.6917C31.188 3.69031 31.242 3.68893 31.2977 3.6875C31.4746 3.71447 31.5299 3.76866 31.6406 3.90532C31.5637 3.90362 31.5637 3.90362 31.4852 3.90189C31.1148 3.89624 30.7792 3.90032 30.4199 4.00298C30.4199 3.97075 30.4199 3.93852 30.4199 3.90532C30.4521 3.90532 30.4844 3.90532 30.5176 3.90532C30.5176 3.87309 30.5176 3.84087 30.5176 3.80766C30.7286 3.72798 30.9086 3.69434 31.134 3.6917Z" fill="#303030" fill-opacity="0.9"/>
<path d="M23.6816 8.01562C23.7139 8.03174 23.7461 8.04785 23.7793 8.06445C23.678 8.16969 23.5762 8.27437 23.4741 8.37878C23.4455 8.40865 23.4168 8.43852 23.3873 8.46929C23.3453 8.51201 23.3453 8.51201 23.3025 8.5556C23.2641 8.5951 23.2641 8.5951 23.225 8.63541C23.134 8.70758 23.0626 8.72811 22.9492 8.74805C23.4082 8.10677 23.4082 8.10677 23.6816 8.01562Z" fill="#303030" fill-opacity="0.9"/>
<path d="M30.8105 3.75761C30.7139 3.77372 30.6172 3.78984 30.5176 3.80644C30.5176 3.83867 30.5176 3.87089 30.5176 3.9041C30.4854 3.9041 30.4531 3.9041 30.4199 3.9041C30.4199 3.93632 30.4199 3.96855 30.4199 4.00175C30.4521 4.01786 30.4844 4.03398 30.5176 4.05058C30.2856 4.19706 30.2856 4.19706 30.1758 4.19706C30.1758 4.16484 30.1758 4.13261 30.1758 4.09941C30.1113 4.08329 30.0469 4.06718 29.9805 4.05058C30.0587 4.00259 30.137 3.95482 30.2155 3.90715C30.2591 3.88052 30.3027 3.8539 30.3476 3.82647C30.5242 3.72608 30.6183 3.69795 30.8105 3.75761Z" fill="#303030" fill-opacity="0.9"/>
<path d="M32.8125 5.125C32.8286 5.125 32.8447 5.125 32.8613 5.125C32.8626 5.23791 32.8636 5.35083 32.8644 5.46375C32.8649 5.52662 32.8655 5.5895 32.8661 5.65429C32.8613 5.80859 32.8613 5.80859 32.8125 5.85742C32.8105 5.93878 32.8104 6.02021 32.8125 6.10156C32.748 6.10156 32.6836 6.10156 32.6172 6.10156C32.6404 5.95708 32.6638 5.81264 32.6874 5.66821C32.694 5.62711 32.7005 5.58601 32.7073 5.54366C32.7138 5.50432 32.7202 5.46498 32.7269 5.42445C32.7327 5.38814 32.7386 5.35183 32.7447 5.31442C32.7637 5.22266 32.7637 5.22266 32.8125 5.125Z" fill="#303030" fill-opacity="0.9"/>
<path d="M32.5192 4.5C32.5353 4.53223 32.5514 4.56445 32.568 4.59766C32.6164 4.59766 32.6647 4.59766 32.7145 4.59766C32.8165 4.76341 32.8289 4.89299 32.8122 5.08594C32.7799 5.11816 32.7477 5.15039 32.7145 5.18359C32.7145 5.15137 32.7145 5.11914 32.7145 5.08594C32.6823 5.08594 32.65 5.08594 32.6168 5.08594C32.5193 4.88474 32.5105 4.72207 32.5192 4.5Z" fill="#303030" fill-opacity="0.9"/>
<path d="M35.7422 34.5234C35.7905 34.5557 35.8389 34.5879 35.8887 34.6211C35.8118 34.7019 35.7344 34.7822 35.6567 34.8622C35.6137 34.9069 35.5706 34.9517 35.5263 34.9978C35.4101 35.1008 35.356 35.1416 35.2051 35.1582C35.3705 34.9291 35.5362 34.7173 35.7422 34.5234Z" fill="#303030" fill-opacity="0.9"/>
<path d="M24.2676 7.28125C24.332 7.29736 24.3965 7.31348 24.4629 7.33008C24.2856 7.50732 24.1084 7.68457 23.9258 7.86719C23.8774 7.85107 23.8291 7.83496 23.7793 7.81836C23.9404 7.64111 24.1016 7.46387 24.2676 7.28125Z" fill="#303030" fill-opacity="0.9"/>
<path d="M31.6406 7.12926C31.6406 7.16149 31.6406 7.19371 31.6406 7.22692C31.3667 7.22692 31.0928 7.22692 30.8105 7.22692C30.8105 7.19469 30.8105 7.16246 30.8105 7.12926C31.0992 7.09151 31.3541 7.0732 31.6406 7.12926Z" fill="#303030" fill-opacity="0.9"/>
<path d="M29.3944 5.03125C29.4921 5.12891 29.4921 5.12891 29.5016 5.2773C29.5005 5.33508 29.4993 5.39286 29.4982 5.45239C29.4973 5.51043 29.4964 5.56846 29.4955 5.62825C29.4944 5.67294 29.4932 5.71763 29.4921 5.76367C29.4437 5.74756 29.3954 5.73145 29.3456 5.71484C29.3443 5.61923 29.3433 5.5236 29.3425 5.42798C29.342 5.37473 29.3414 5.32148 29.3408 5.26662C29.3456 5.12891 29.3456 5.12891 29.3944 5.03125Z" fill="#303030" fill-opacity="0.9"/>
<path d="M23.877 9.32913C24.0123 9.32518 24.1475 9.32227 24.2828 9.31997C24.3212 9.31875 24.3596 9.31752 24.3991 9.31626C24.4361 9.31578 24.473 9.31531 24.5111 9.31482C24.5622 9.31367 24.5622 9.31367 24.6142 9.3125C24.7336 9.3339 24.7767 9.38452 24.8535 9.47561C24.5269 9.45003 24.2017 9.42168 23.877 9.37796C23.877 9.36184 23.877 9.34573 23.877 9.32913Z" fill="#303030" fill-opacity="0.9"/>
<path d="M4.78475 23.2969C4.88875 23.482 4.89056 23.6219 4.88241 23.834C4.85018 23.834 4.81795 23.834 4.78475 23.834C4.78475 24.0112 4.78475 24.1885 4.78475 24.3711C4.76864 24.3711 4.75252 24.3711 4.73592 24.3711C4.73088 24.0085 4.73599 23.6565 4.78475 23.2969Z" fill="#303030" fill-opacity="0.9"/>
<path d="M25.1953 4.8379C25.1953 4.87013 25.1953 4.90235 25.1953 4.93556C25.0977 5.0149 25.0977 5.0149 25 5.08204C24.9678 5.06593 24.9355 5.04981 24.9023 5.03321C24.8375 5.01592 24.7724 4.99975 24.707 4.98438C24.6419 4.96811 24.5768 4.95183 24.5117 4.93556C24.7497 4.85786 24.9418 4.82755 25.1953 4.8379Z" fill="#303030" fill-opacity="0.9"/>
<path d="M31.8848 3.90625C32.0007 3.92151 32.0007 3.92151 32.1289 3.95508C32.1611 4.00342 32.1934 4.05176 32.2266 4.10156C32.2104 4.13379 32.1943 4.16602 32.1777 4.19922C32.0972 4.18311 32.0166 4.16699 31.9336 4.15039C31.9175 4.06982 31.9014 3.98926 31.8848 3.90625Z" fill="#303030" fill-opacity="0.9"/>
<path d="M41.9434 32.9141C41.9756 32.9141 42.0078 32.9141 42.041 32.9141C41.9657 33.1446 41.8907 33.3739 41.7969 33.5977C41.7808 33.5977 41.7646 33.5977 41.748 33.5977C41.7908 33.2192 41.7908 33.2192 41.8457 33.1094C41.8779 33.1094 41.9102 33.1094 41.9434 33.1094C41.9434 33.0449 41.9434 32.9805 41.9434 32.9141Z" fill="#303030" fill-opacity="0.9"/>
<path d="M43.0664 28.7578C43.0825 28.7578 43.0986 28.7578 43.1152 28.7578C43.0682 29.3765 43.0682 29.3765 43.0176 29.6367C43.0015 29.6367 42.9854 29.6367 42.9688 29.6367C42.9688 29.395 42.9688 29.1533 42.9688 28.9043C43.001 28.9043 43.0332 28.9043 43.0664 28.9043C43.0664 28.856 43.0664 28.8076 43.0664 28.7578Z" fill="#303030" fill-opacity="0.9"/>
<path d="M32.6172 5.85938C32.6333 5.92383 32.6494 5.98828 32.666 6.05469C32.7144 6.0708 32.7627 6.08691 32.8125 6.10352C32.7803 6.2002 32.748 6.29688 32.7148 6.39648C32.6665 6.34814 32.6182 6.2998 32.5684 6.25C32.52 6.27417 32.52 6.27417 32.4707 6.29883C32.519 6.15381 32.5674 6.00879 32.6172 5.85938Z" fill="#303030" fill-opacity="0.9"/>
<path d="M22.0215 46.2422C22.0537 46.2583 22.0859 46.2744 22.1191 46.291C21.9686 46.4975 21.9686 46.4975 21.875 46.584C21.7377 46.6023 21.7377 46.6023 21.6309 46.584C21.7537 46.4567 21.8775 46.345 22.0215 46.2422Z" fill="#303030" fill-opacity="0.9"/>
<path d="M37.5488 31.8906C37.5649 31.8906 37.5811 31.8906 37.5977 31.8906C37.5852 32.005 37.5687 32.1191 37.5488 32.2324C37.5005 32.2566 37.5005 32.2566 37.4512 32.2812C37.4512 32.3296 37.4512 32.3779 37.4512 32.4277C37.4028 32.4277 37.3545 32.4277 37.3047 32.4277C37.3755 32.2426 37.4586 32.067 37.5488 31.8906Z" fill="#303030" fill-opacity="0.9"/>
<path d="M30.8105 3.76606C30.7139 3.78217 30.6172 3.79828 30.5176 3.81488C30.5176 3.84711 30.5176 3.87934 30.5176 3.91254C30.4854 3.91254 30.4531 3.91254 30.4199 3.91254C30.4038 3.94477 30.3877 3.97699 30.3711 4.0102C30.3228 4.0102 30.2744 4.0102 30.2246 4.0102C30.2734 3.86371 30.2734 3.86371 30.4352 3.77826C30.6629 3.70108 30.6629 3.70108 30.8105 3.76606Z" fill="#303030" fill-opacity="0.9"/>
<path d="M32.5684 42.2344C32.6192 42.3868 32.633 42.4331 32.5684 42.5762C32.4432 42.6372 32.4432 42.6372 32.3242 42.6738C32.3852 42.5049 32.4548 42.3737 32.5684 42.2344Z" fill="#303030" fill-opacity="0.9"/>
<path d="M32.2754 42.6719C32.2915 42.7202 32.3076 42.7686 32.3242 42.8184C32.4226 42.8542 32.4226 42.8542 32.5195 42.8672C32.4046 42.937 32.3496 42.9691 32.2144 42.9465C32.1862 42.9365 32.158 42.9264 32.1289 42.916C32.1772 42.8354 32.2256 42.7549 32.2754 42.6719Z" fill="#303030" fill-opacity="0.9"/>
<path d="M30.5176 3.8125C30.6143 3.8125 30.7109 3.8125 30.8105 3.8125C30.8267 3.84473 30.8428 3.87695 30.8594 3.91016C30.7144 3.94238 30.5693 3.97461 30.4199 4.00781C30.4199 3.97559 30.4199 3.94336 30.4199 3.91016C30.4521 3.91016 30.4844 3.91016 30.5176 3.91016C30.5176 3.87793 30.5176 3.8457 30.5176 3.8125Z" fill="#303030" fill-opacity="0.9"/>
<path d="M25.8301 42.625C25.8301 42.7814 25.7938 42.8737 25.7324 43.0156C25.6841 43.0156 25.6357 43.0156 25.5859 43.0156C25.6529 42.8714 25.7319 42.75 25.8301 42.625Z" fill="#303030" fill-opacity="0.9"/>
<path d="M26.1719 35.9375C26.3187 36.0843 26.2986 36.2219 26.3184 36.4258C26.1872 36.2947 26.1689 36.1633 26.123 35.9863C26.1392 35.9702 26.1553 35.9541 26.1719 35.9375Z" fill="#303030" fill-opacity="0.9"/>
<path d="M24.2676 7.28125C24.3713 7.29956 24.3713 7.29956 24.4629 7.33008C24.4236 7.35223 24.3843 7.37439 24.3439 7.39722C24.2144 7.46422 24.2144 7.46422 24.1699 7.57422C24.1377 7.57422 24.1055 7.57422 24.0723 7.57422C24.1285 7.45371 24.1723 7.37657 24.2676 7.28125Z" fill="#303030" fill-opacity="0.9"/>
<path d="M30.5176 6.98438C30.6143 7.0166 30.7109 7.04883 30.8105 7.08203C30.7944 7.11426 30.7783 7.14648 30.7617 7.17969C30.6812 7.17969 30.6006 7.17969 30.5176 7.17969C30.5176 7.11523 30.5176 7.05078 30.5176 6.98438Z" fill="#303030" fill-opacity="0.9"/>
<path d="M36.6211 33.3984C36.6547 33.4869 36.6547 33.4869 36.6699 33.5938C36.6058 33.6792 36.6058 33.6792 36.5234 33.7402C36.4912 33.7402 36.459 33.7402 36.4258 33.7402C36.4782 33.5979 36.5126 33.5069 36.6211 33.3984Z" fill="#303030" fill-opacity="0.9"/>
<path d="M19.9225 9.96094C19.9386 9.99316 19.9547 10.0254 19.9713 10.0586C19.9256 10.1738 19.8769 10.2879 19.8248 10.4004C19.8087 10.4004 19.7926 10.4004 19.776 10.4004C19.758 10.13 19.758 10.13 19.8492 10.0159C19.8734 9.99774 19.8976 9.97961 19.9225 9.96094Z" fill="#303030" fill-opacity="0.9"/>
<path d="M29.5898 6.34375C29.6844 6.35901 29.6844 6.35901 29.7852 6.39258C29.8013 6.44092 29.8174 6.48926 29.834 6.53906C29.7856 6.55518 29.7373 6.57129 29.6875 6.58789C29.6553 6.55566 29.623 6.52344 29.5898 6.49023C29.5898 6.44189 29.5898 6.39355 29.5898 6.34375Z" fill="#303030" fill-opacity="0.9"/>
<path d="M32.1777 4.10156C32.2422 4.13379 32.3066 4.16602 32.373 4.19922C32.3408 4.23145 32.3086 4.26367 32.2754 4.29688C32.2754 4.34521 32.2754 4.39355 32.2754 4.44336C32.2109 4.36279 32.1465 4.28223 32.0801 4.19922C32.1123 4.19922 32.1445 4.19922 32.1777 4.19922C32.1777 4.16699 32.1777 4.13477 32.1777 4.10156Z" fill="#303030" fill-opacity="0.9"/>
</g>
<defs>
<filter id="filter0_d_13_5526" x="-4" y="0" width="58" height="58" filterUnits="userSpaceOnUse" color-interpolation-filters="sRGB">
<feFlood flood-opacity="0" result="BackgroundImageFix"/>
<feColorMatrix in="SourceAlpha" type="matrix" values="0 0 0 0 0 0 0 0 0 0 0 0 0 0 0 0 0 0 127 0" result="hardAlpha"/>
<feOffset dy="4"/>
<feGaussianBlur stdDeviation="2"/>
<feComposite in2="hardAlpha" operator="out"/>
<feColorMatrix type="matrix" values="0 0 0 0 0 0 0 0 0 0 0 0 0 0 0 0 0 0 0.25 0"/>
<feBlend mode="normal" in2="BackgroundImageFix" result="effect1_dropShadow_13_5526"/>
<feBlend mode="normal" in="SourceGraphic" in2="effect1_dropShadow_13_5526" result="shape"/>
</filter>
</defs>
</svg>
