<svg width="33" height="38" viewBox="0 0 33 38" fill="none" xmlns="http://www.w3.org/2000/svg">
<g filter="url(#filter0_d_13_5251)">
<path d="M17.1055 3.09721C17.1055 3.11784 17.1055 3.13846 17.1055 3.15971C17.0285 3.21826 16.9511 3.27333 16.8711 3.32768C16.822 3.36177 16.7729 3.39591 16.7238 3.4301C16.6987 3.44754 16.6737 3.46498 16.6479 3.48294C16.1707 3.8185 15.7111 4.18183 15.2847 4.58C15.2039 4.65539 15.1218 4.72898 15.0391 4.80229C14.2611 5.50311 13.5154 6.46712 13.4523 7.55716C13.357 9.80708 14.5939 11.774 15.918 13.5035C15.946 13.5403 15.9739 13.5771 16.0019 13.6139C16.1756 13.8419 16.3534 14.0669 16.5308 14.292C16.6027 14.3833 16.6744 14.4746 16.7461 14.566C16.8309 14.6739 16.9157 14.7818 17.0007 14.8897C18.0653 16.2424 18.0653 16.2424 18.4837 16.8432C18.5436 16.9291 18.6046 17.014 18.6668 17.0983C19.2968 17.9529 19.86 18.8613 20.3702 19.7916C20.4106 19.865 20.4515 19.938 20.4927 20.0109C20.9916 20.9063 21.3775 21.9041 21.5743 22.9097C21.5793 22.9352 21.5844 22.9607 21.5896 22.9869C21.8284 24.2363 21.6259 25.5125 20.9219 26.5777C20.4761 27.2306 19.9086 27.7999 19.2618 28.2535C19.2288 28.2769 19.2288 28.2769 19.1951 28.3009C18.0052 29.1413 16.2854 29.9507 14.793 29.8785C14.8402 29.7467 14.9353 29.6893 15.0469 29.6148C15.2871 29.449 15.5117 29.2671 15.7365 29.0812C15.7863 29.0403 15.8365 28.9998 15.8868 28.9595C16.1154 28.7761 16.3312 28.581 16.543 28.3785C16.5632 28.3591 16.5834 28.3398 16.6043 28.3199C16.8909 28.0442 17.1514 27.7616 17.3868 27.441C17.4065 27.4149 17.4262 27.3888 17.4465 27.3619C18.0418 26.5482 18.3127 25.624 18.1661 24.6207C18.0335 23.8319 17.726 23.0798 17.3552 22.375C17.3235 22.3144 17.2925 22.2536 17.2616 22.1927C16.9608 21.605 16.6038 21.0474 16.2305 20.5035C16.2019 20.4617 16.2019 20.4617 16.1727 20.419C15.7315 19.7764 15.2671 19.1532 14.793 18.5347C14.7633 18.4959 14.7337 18.4572 14.704 18.4184C14.4531 18.0908 14.1988 17.7662 13.9375 17.4468C13.7447 17.2107 13.5592 16.9695 13.375 16.7265C13.3245 16.6601 13.2737 16.5939 13.2227 16.5279C11.7756 14.6517 10.4469 12.4207 10.444 9.97624C10.4439 9.94492 10.4438 9.91359 10.4437 9.88132C10.4435 9.81538 10.4435 9.74944 10.4435 9.6835C10.4434 9.58476 10.4428 9.48604 10.4422 9.38731C10.4406 8.83912 10.4665 8.30558 10.6055 7.773C10.6136 7.74012 10.6218 7.70725 10.6302 7.67339C10.6684 7.52083 10.7088 7.37045 10.7618 7.22221C10.4983 7.38114 10.2725 7.58154 10.043 7.78471C10.0266 7.79911 10.0102 7.81351 9.99327 7.82834C9.62033 8.15628 9.28761 8.51973 8.98051 8.90971C8.94522 8.95352 8.94522 8.95352 8.90922 8.99822C7.77585 10.4315 7.10984 12.1397 6.85551 13.941C6.85141 13.9696 6.8473 13.9981 6.84308 14.0276C6.55108 16.1777 7.07154 18.4453 8.07426 20.3472C8.0929 20.383 8.0929 20.383 8.11192 20.4195C8.69251 21.5288 9.53318 22.6264 10.5218 23.4058C10.6092 23.4751 10.693 23.5477 10.7774 23.6207C12.357 24.938 14.423 25.6354 16.4644 25.6746C16.5264 25.6759 16.5884 25.6775 16.6503 25.6791C16.6867 25.6799 16.7232 25.6807 16.7607 25.6815C16.8509 25.6905 16.9041 25.7065 16.9805 25.7535C16.8193 26.5256 16.3748 27.1375 15.8434 27.6997C15.7854 27.7616 15.7284 27.8243 15.6714 27.887C15.6293 27.933 15.5871 27.979 15.545 28.0249C15.525 28.0471 15.505 28.0692 15.4845 28.092C15.456 28.1228 15.456 28.1228 15.4269 28.1542C15.4101 28.1726 15.3933 28.191 15.376 28.21C15.2836 28.2876 15.215 28.2855 15.0957 28.2793C15.0548 28.2749 15.0139 28.2705 14.9717 28.2659C14.9381 28.2623 14.9381 28.2623 14.9038 28.2587C14.8304 28.2507 14.757 28.2424 14.6836 28.2339C14.6584 28.2311 14.6332 28.2282 14.6072 28.2252C12.3554 27.967 10.3044 27.1549 8.54301 25.7222C8.52611 25.7086 8.50921 25.695 8.4918 25.681C8.19013 25.4365 7.91561 25.1638 7.64067 24.8902C7.62248 24.8722 7.60429 24.8541 7.58555 24.8356C7.35825 24.6099 7.1487 24.3794 6.94926 24.1285C6.92044 24.0947 6.8914 24.0612 6.86198 24.028C5.4122 22.3796 4.53561 20.1576 4.14262 18.023C4.13348 17.9741 4.13348 17.9741 4.12416 17.9242C4.01681 17.3086 3.99898 16.6895 4.00004 16.066C4.00006 16.0282 4.00008 15.9905 4.00009 15.9516C4.00129 15.3751 4.02392 14.8202 4.13676 14.2535C4.14681 14.2007 4.14681 14.2007 4.15706 14.1469C4.49295 12.4122 5.23817 10.7294 6.33944 9.34444C6.3849 9.28706 6.4297 9.22924 6.47429 9.17119C6.96039 8.54038 7.50008 7.92823 8.10551 7.40971C8.13735 7.38178 8.16917 7.35383 8.20097 7.32585C9.2609 6.39838 10.5323 5.62588 11.8766 5.19621C11.9003 5.18864 11.924 5.18106 11.9485 5.17325C11.9844 5.16177 11.9844 5.16177 12.0211 5.15006C12.5137 4.99267 12.953 4.81554 13.4001 4.55058C13.5245 4.4777 13.6516 4.4102 13.7793 4.34331C13.8032 4.33081 13.8271 4.31831 13.8516 4.30544C16.2086 3.07997 16.2086 3.07997 17.1055 3.09721Z" fill="white"/>
<path d="M18.1992 4.74707C18.2334 4.75403 18.2676 4.76099 18.3028 4.76817C20.2234 5.16762 22.1089 6.06491 23.668 7.24707C23.6875 7.26187 23.7071 7.27668 23.7272 7.29194C24.4228 7.82228 25.1055 8.41913 25.668 9.09082C25.6931 9.11978 25.7182 9.14874 25.7441 9.17858C27.8424 11.6046 28.8756 14.7988 28.6465 17.9873C28.5384 19.2615 28.1957 20.5347 27.6367 21.6846C27.6265 21.7059 27.6163 21.7272 27.6058 21.7492C27.5354 21.8957 27.4621 22.0406 27.3867 22.1846C27.3678 22.2208 27.3678 22.2208 27.3484 22.2578C26.959 22.9965 26.4834 23.688 25.9335 24.3168C25.8977 24.3591 25.8627 24.4023 25.8282 24.4458C25.6503 24.6692 25.4585 24.8724 25.256 25.0734C25.2032 25.1259 25.1507 25.1787 25.0983 25.2316C24.8916 25.4385 24.6795 25.6289 24.4492 25.8096C24.4123 25.8394 24.3755 25.8692 24.3386 25.899C23.6518 26.4442 22.9198 26.8849 22.1367 27.2783C22.1119 27.2909 22.087 27.3035 22.0614 27.3164C21.9963 27.3491 21.9309 27.3813 21.8652 27.4131C21.8297 27.4304 21.7941 27.4476 21.7574 27.4655C21.6664 27.4976 21.6307 27.5023 21.543 27.4658C21.5619 27.4359 21.5808 27.406 21.6003 27.3751C21.6712 27.2628 21.7413 27.1501 21.8112 27.0372C21.8395 26.9916 21.8679 26.946 21.8964 26.9006C22.365 26.1513 22.6428 25.3337 22.793 24.4658C22.7967 24.4443 22.8005 24.4228 22.8044 24.4006C22.8238 24.2647 22.8245 24.1317 22.8214 23.9945C22.8193 23.8969 22.8184 23.7992 22.8176 23.7016C22.8168 23.6513 22.8153 23.601 22.8132 23.5507C22.7968 23.1431 22.7968 23.1431 22.8943 23.0043C22.9885 22.9049 23.0957 22.8286 23.2094 22.7532C23.445 22.5846 23.6378 22.342 23.8242 22.1221C23.8488 22.0944 23.8733 22.0668 23.8986 22.0383C24.3208 21.5586 24.664 21.0194 24.9805 20.4658C24.993 20.4442 25.0055 20.4227 25.0184 20.4004C26.1677 18.4023 26.381 15.9501 25.7993 13.7465C25.2682 11.8039 24.1166 9.95881 22.5742 8.65332C22.5459 8.62842 22.5175 8.60353 22.4883 8.57788C21.8155 7.99098 21.0567 7.55275 20.2617 7.15332C20.2269 7.13569 20.2269 7.13569 20.1914 7.1177C18.6849 6.36054 17.0482 6.0677 15.3867 5.90332C15.4374 5.79569 15.4938 5.72811 15.5801 5.6455C15.6681 5.55962 15.7527 5.47376 15.832 5.37988C15.9501 5.24196 16.0793 5.11607 16.2083 4.98863C16.2984 4.89925 16.3855 4.80956 16.4668 4.71191C16.8159 4.30019 17.7227 4.64861 18.1992 4.74707Z" fill="white"/>
<path d="M20.8863 2.36084C20.9124 2.36036 20.9386 2.35987 20.9656 2.35938C21.2822 2.36134 21.5354 2.50415 21.7613 2.72021C22.0164 3.02926 22.0736 3.32994 22.0487 3.72118C22.0194 4.01218 21.8441 4.21436 21.6363 4.40771C21.3474 4.63817 21.031 4.69309 20.6675 4.65771C20.3789 4.59781 20.1325 4.44159 19.9534 4.20691C19.7567 3.89538 19.6811 3.59653 19.7447 3.22937C19.8244 2.92055 20.0347 2.68325 20.2925 2.50146C20.4902 2.38921 20.6607 2.35668 20.8863 2.36084ZM20.0425 2.93896C19.9158 3.11882 19.9111 3.28037 19.9097 3.49365C19.9091 3.51782 19.9084 3.54199 19.9077 3.56689C19.9058 3.85306 19.9961 4.04227 20.1908 4.24988C20.4374 4.47428 20.695 4.51732 21.0204 4.51392C21.2767 4.48637 21.4762 4.36396 21.6519 4.1792C21.8663 3.90944 21.9284 3.65467 21.8959 3.31267C21.8539 3.04644 21.6944 2.84919 21.4969 2.67712C21.3036 2.55374 21.1174 2.51514 20.8902 2.51709C20.8655 2.51729 20.8408 2.51749 20.8154 2.5177C20.4743 2.52837 20.2594 2.6825 20.0425 2.93896Z" fill="white"/>
<path d="M20.8677 2.86318C20.9032 2.86203 20.9388 2.86088 20.9754 2.8597C21.2266 2.85837 21.2266 2.85837 21.3209 2.91763C21.4369 3.04555 21.4429 3.16828 21.4364 3.33168C21.4163 3.42193 21.395 3.45321 21.3247 3.51161C21.2938 3.53031 21.2628 3.549 21.231 3.56826C21.2661 3.6236 21.3013 3.67894 21.3364 3.73427C21.356 3.76509 21.3756 3.7959 21.3958 3.82765C21.434 3.88741 21.4729 3.94674 21.5122 4.00576C21.5122 4.03669 21.5122 4.06763 21.5122 4.09951C21.3906 4.12365 21.2891 4.13152 21.1685 4.09951C21.0624 3.98649 20.9931 3.85951 20.9185 3.72451C20.8516 3.65768 20.8206 3.64868 20.731 3.63076C20.7291 3.65936 20.7272 3.68796 20.7252 3.71742C20.7226 3.75457 20.72 3.79171 20.7173 3.82997C20.7148 3.86695 20.7122 3.90393 20.7096 3.94203C20.6997 4.03701 20.6997 4.03701 20.6685 4.09951C20.563 4.10341 20.563 4.10341 20.4497 4.09951C20.3722 4.02202 20.3792 3.97616 20.3777 3.87033C20.3778 3.84771 20.3778 3.82509 20.3778 3.80178C20.3777 3.7785 20.3776 3.75523 20.3774 3.73125C20.3772 3.682 20.3772 3.63274 20.3774 3.58349C20.3775 3.50811 20.3767 3.43276 20.3759 3.35738C20.3759 3.30955 20.3758 3.26172 20.3759 3.21388C20.3756 3.19132 20.3753 3.16876 20.375 3.14552C20.3758 3.05716 20.3777 2.99038 20.4239 2.91365C20.5541 2.83859 20.7217 2.86342 20.8677 2.86318ZM20.6685 3.06826C20.6685 3.18169 20.6685 3.29513 20.6685 3.41201C20.8273 3.41849 20.9553 3.40073 21.106 3.34951C21.1455 3.31656 21.1455 3.31656 21.145 3.24208C21.1425 3.21566 21.1399 3.18923 21.1372 3.16201C21.0308 3.09108 20.9758 3.08808 20.8501 3.07997C20.8162 3.07764 20.7822 3.0753 20.7472 3.07289C20.7082 3.0706 20.7082 3.0706 20.6685 3.06826Z" fill="white"/>
<path d="M19.918 3.15625C19.9771 3.27449 19.9475 3.43129 19.9425 3.56238C19.9376 3.83272 20.0129 4.02802 20.1998 4.22424C20.4637 4.46726 20.7622 4.47519 21.1055 4.5C21.0019 4.56904 20.9697 4.56953 20.8496 4.56641C20.8215 4.56584 20.7933 4.56528 20.7643 4.5647C20.7428 4.56397 20.7213 4.56325 20.6992 4.5625C20.6992 4.58312 20.6992 4.60375 20.6992 4.625C20.8333 4.625 20.9673 4.625 21.1055 4.625C21.1055 4.63531 21.1055 4.64562 21.1055 4.65625C20.6948 4.67783 20.3988 4.62383 20.0813 4.35217C19.8468 4.11318 19.7258 3.81406 19.7246 3.48242C19.7261 3.42577 19.7279 3.36912 19.7305 3.3125C19.7408 3.3125 19.7511 3.3125 19.7617 3.3125C19.772 3.41562 19.7823 3.51875 19.793 3.625C19.8033 3.625 19.8136 3.625 19.8242 3.625C19.8284 3.59378 19.8325 3.56256 19.8368 3.5304C19.8451 3.46991 19.8451 3.46991 19.8535 3.4082C19.859 3.36796 19.8644 3.32772 19.87 3.28625C19.8867 3.1875 19.8867 3.1875 19.918 3.15625Z" fill="white"/>
<path d="M20.8548 2.35261C20.8776 2.35226 20.9004 2.35192 20.9239 2.35156C21.0363 2.35461 21.0947 2.36394 21.1829 2.43586C21.1983 2.45608 21.2138 2.4763 21.2298 2.49714C21.1794 2.4966 21.1794 2.4966 21.1281 2.49604C21.0832 2.49575 21.0383 2.49546 20.9934 2.49519C20.9714 2.49492 20.9494 2.49466 20.9267 2.49439C20.7847 2.49374 20.6511 2.50501 20.511 2.52839C20.511 2.54901 20.511 2.56964 20.511 2.59089C20.4572 2.62922 20.4572 2.62922 20.3841 2.67292C20.1869 2.7999 19.9574 3.00453 19.904 3.24393C19.8942 3.31068 19.8867 3.37725 19.8801 3.4444C19.8776 3.46755 19.875 3.49069 19.8724 3.51453C19.8662 3.5712 19.8604 3.62792 19.8548 3.68464C19.8238 3.67433 19.7929 3.66401 19.761 3.65339C19.7413 3.30076 19.748 3.05261 19.9771 2.76606C20.2231 2.49634 20.4904 2.357 20.8548 2.35261Z" fill="white"/>
<path d="M21.9805 3.28125C21.9908 3.28125 22.0011 3.28125 22.0117 3.28125C22.0126 3.35351 22.0132 3.42578 22.0137 3.49805C22.014 3.53829 22.0144 3.57853 22.0148 3.62C22.0117 3.71875 22.0117 3.71875 21.9805 3.75C21.9853 3.79641 21.9853 3.79641 21.9902 3.84375C21.9928 4.05271 21.8261 4.21974 21.6934 4.36719C21.4466 4.5968 21.1958 4.64094 20.8707 4.63299C20.8135 4.63087 20.7564 4.62801 20.6992 4.625C20.6992 4.60438 20.6992 4.58375 20.6992 4.5625C20.7238 4.56053 20.7484 4.55855 20.7738 4.55652C21.1064 4.51913 21.4052 4.40908 21.6387 4.16016C21.7374 4.03431 21.7987 3.89862 21.8555 3.75C21.8671 3.72486 21.8787 3.69973 21.8906 3.67383C21.9342 3.54608 21.9563 3.41386 21.9805 3.28125Z" fill="white"/>
<path d="M21.6055 4.25C21.6261 4.29125 21.6467 4.3325 21.668 4.375C21.3692 4.64484 21.081 4.64078 20.6992 4.625C20.6992 4.60438 20.6992 4.58375 20.6992 4.5625C20.7246 4.56016 20.7499 4.55783 20.776 4.55542C21.0049 4.52824 21.176 4.47757 21.373 4.35742C21.4486 4.31286 21.5234 4.2805 21.6055 4.25Z" fill="white"/>
<path d="M19.9181 3.15625C19.9772 3.27449 19.9476 3.43129 19.9426 3.56238C19.9393 3.74165 19.9745 3.86584 20.0431 4.03125C20.0431 4.06219 20.0431 4.09312 20.0431 4.125C19.9728 4.12695 19.9728 4.12695 19.8868 4.09375C19.7696 3.90322 19.7262 3.71329 19.7286 3.49219C19.729 3.44167 19.729 3.44167 19.7295 3.39014C19.7298 3.36452 19.7302 3.3389 19.7306 3.3125C19.7409 3.3125 19.7512 3.3125 19.7618 3.3125C19.7721 3.41562 19.7824 3.51875 19.7931 3.625C19.8034 3.625 19.8137 3.625 19.8243 3.625C19.8285 3.59378 19.8326 3.56256 19.8369 3.5304C19.8452 3.46991 19.8452 3.46991 19.8536 3.4082C19.859 3.36796 19.8645 3.32772 19.8701 3.28625C19.8868 3.1875 19.8868 3.1875 19.9181 3.15625Z" fill="white"/>
<path d="M19.8872 2.90625C19.9284 2.91656 19.9697 2.92687 20.0122 2.9375C19.9542 3.1445 19.9542 3.1445 19.9165 3.24219C19.8742 3.38859 19.8662 3.53591 19.8559 3.6875C19.825 3.67719 19.7941 3.66688 19.7622 3.65625C19.7391 3.12835 19.7391 3.12835 19.8872 2.90625Z" fill="white"/>
<path d="M21.1055 2.375C21.1511 2.38383 21.1967 2.39301 21.2422 2.40234C21.2803 2.40996 21.2803 2.40996 21.3191 2.41772C21.3867 2.4375 21.3867 2.4375 21.4492 2.5C21.4286 2.5 21.408 2.5 21.3867 2.5C21.397 2.54125 21.4073 2.5825 21.418 2.625C21.3838 2.61477 21.3496 2.60454 21.3145 2.59399C21.1508 2.55309 20.992 2.55559 20.8242 2.55859C20.794 2.55888 20.7639 2.55916 20.7328 2.55945C20.6591 2.56018 20.5854 2.5612 20.5117 2.5625C20.608 2.46621 20.7015 2.4696 20.8346 2.4657C20.8705 2.46606 20.9064 2.46642 20.9434 2.4668C20.9797 2.46708 21.0159 2.46736 21.0533 2.46765C21.0809 2.46801 21.1084 2.46838 21.1367 2.46875C21.1264 2.43781 21.1161 2.40687 21.1055 2.375Z" fill="white"/>
<path d="M20.9062 2.36206C20.9408 2.36117 20.9754 2.36029 21.011 2.35938C21.1242 2.37663 21.1596 2.41132 21.2305 2.49878C21.1812 2.49769 21.1812 2.49769 21.131 2.49658C20.8939 2.49297 20.6792 2.49558 20.4492 2.56128C20.4492 2.54065 20.4492 2.52003 20.4492 2.49878C20.4698 2.49878 20.4905 2.49878 20.5117 2.49878C20.5117 2.47815 20.5117 2.45753 20.5117 2.43628C20.6468 2.38528 20.762 2.36375 20.9062 2.36206Z" fill="white"/>
<path d="M16.1367 5.125C16.1573 5.13531 16.178 5.14562 16.1992 5.15625C16.1344 5.2236 16.0693 5.29059 16.0039 5.35742C15.9856 5.37654 15.9672 5.39565 15.9484 5.41534C15.9215 5.44269 15.9215 5.44269 15.894 5.47058C15.8695 5.49587 15.8695 5.49587 15.8445 5.52166C15.7862 5.56785 15.7405 5.58099 15.668 5.59375C15.9617 5.18333 15.9617 5.18333 16.1367 5.125Z" fill="white"/>
<path d="M20.6992 2.4105C20.6373 2.42081 20.5755 2.43112 20.5117 2.44175C20.5117 2.46237 20.5117 2.483 20.5117 2.50425C20.4911 2.50425 20.4705 2.50425 20.4492 2.50425C20.4492 2.52487 20.4492 2.5455 20.4492 2.56675C20.4698 2.57706 20.4905 2.58737 20.5117 2.598C20.3633 2.69175 20.3633 2.69175 20.293 2.69175C20.293 2.67112 20.293 2.6505 20.293 2.62925C20.2517 2.61893 20.2105 2.60862 20.168 2.598C20.218 2.56728 20.2682 2.53671 20.3184 2.5062C20.3463 2.48916 20.3742 2.47212 20.403 2.45456C20.516 2.39032 20.5762 2.37231 20.6992 2.4105Z" fill="white"/>
<path d="M21.9805 3.28125C21.9908 3.28125 22.0011 3.28125 22.0117 3.28125C22.0126 3.35351 22.0132 3.42578 22.0137 3.49805C22.014 3.53829 22.0144 3.57853 22.0148 3.62C22.0117 3.71875 22.0117 3.71875 21.9805 3.75C21.9792 3.80207 21.9791 3.85418 21.9805 3.90625C21.9392 3.90625 21.898 3.90625 21.8555 3.90625C21.8703 3.81378 21.8853 3.72134 21.9004 3.62891C21.9046 3.6026 21.9088 3.5763 21.9131 3.54919C21.9173 3.52402 21.9214 3.49884 21.9257 3.4729C21.9294 3.44966 21.9332 3.42642 21.9371 3.40248C21.9492 3.34375 21.9492 3.34375 21.9805 3.28125Z" fill="white"/>
<path d="M21.7927 2.875C21.803 2.89563 21.8133 2.91625 21.8239 2.9375C21.8549 2.9375 21.8858 2.9375 21.9177 2.9375C21.983 3.04358 21.9909 3.12651 21.9802 3.25C21.9595 3.27062 21.9389 3.29125 21.9177 3.3125C21.9177 3.29188 21.9177 3.27125 21.9177 3.25C21.897 3.25 21.8764 3.25 21.8552 3.25C21.7927 3.12123 21.7871 3.01713 21.7927 2.875Z" fill="white"/>
<path d="M23.8555 22.0938C23.8864 22.1144 23.9173 22.135 23.9492 22.1562C23.9 22.208 23.8505 22.2593 23.8008 22.3105C23.7732 22.3392 23.7457 22.3678 23.7173 22.3973C23.6429 22.4633 23.6083 22.4894 23.5117 22.5C23.6176 22.3534 23.7237 22.2178 23.8555 22.0938Z" fill="white"/>
<path d="M16.5117 4.65625C16.553 4.66656 16.5942 4.67687 16.6367 4.6875C16.5233 4.80094 16.4098 4.91438 16.293 5.03125C16.262 5.02094 16.2311 5.01063 16.1992 5C16.3023 4.88656 16.4055 4.77313 16.5117 4.65625Z" fill="white"/>
<path d="M21.2305 4.56179C21.2305 4.58241 21.2305 4.60304 21.2305 4.62429C21.0552 4.62429 20.8798 4.62429 20.6992 4.62429C20.6992 4.60366 20.6992 4.58304 20.6992 4.56179C20.884 4.53763 21.0471 4.52591 21.2305 4.56179Z" fill="white"/>
<path d="M19.7931 3.21875C19.8556 3.28125 19.8556 3.28125 19.8617 3.37622C19.861 3.4132 19.8602 3.45018 19.8595 3.48828C19.8589 3.52542 19.8584 3.56256 19.8578 3.60083C19.8571 3.62943 19.8563 3.65803 19.8556 3.6875C19.8247 3.67719 19.7937 3.66688 19.7618 3.65625C19.761 3.59505 19.7604 3.53386 19.7599 3.47266C19.7595 3.43858 19.7592 3.4045 19.7588 3.36938C19.7618 3.28125 19.7618 3.28125 19.7931 3.21875Z" fill="white"/>
<path d="M16.2617 5.96377C16.3483 5.96124 16.4349 5.95938 16.5215 5.95791C16.546 5.95712 16.5706 5.95634 16.5959 5.95553C16.6196 5.95523 16.6432 5.95492 16.6676 5.95461C16.7003 5.95388 16.7003 5.95388 16.7336 5.95312C16.81 5.96682 16.8376 5.99922 16.8867 6.05752C16.6777 6.04114 16.4696 6.023 16.2617 5.99502C16.2617 5.98471 16.2617 5.97439 16.2617 5.96377Z" fill="white"/>
<path d="M4.04396 14.9062C4.11052 15.0247 4.11168 15.1143 4.10646 15.25C4.08583 15.25 4.06521 15.25 4.04396 15.25C4.04396 15.3634 4.04396 15.4769 4.04396 15.5938C4.03365 15.5938 4.02333 15.5938 4.01271 15.5938C4.00948 15.3617 4.01275 15.1364 4.04396 14.9062Z" fill="white"/>
<path d="M17.1055 3.09501C17.1055 3.11563 17.1055 3.13626 17.1055 3.15751C17.043 3.20829 17.043 3.20829 16.9805 3.25126C16.9598 3.24094 16.9392 3.23063 16.918 3.22001C16.8765 3.20894 16.8348 3.19859 16.793 3.18876C16.7513 3.17834 16.7096 3.16792 16.668 3.15751C16.8203 3.10778 16.9432 3.08838 17.1055 3.09501Z" fill="white"/>
<path d="M21.3867 2.5C21.4609 2.50977 21.4609 2.50977 21.543 2.53125C21.5636 2.56219 21.5842 2.59313 21.6055 2.625C21.5952 2.64562 21.5848 2.66625 21.5742 2.6875C21.5227 2.67719 21.4711 2.66688 21.418 2.65625C21.4077 2.60469 21.3973 2.55313 21.3867 2.5Z" fill="white"/>
<path d="M27.8242 21.0625C27.8448 21.0625 27.8655 21.0625 27.8867 21.0625C27.8385 21.21 27.7905 21.3568 27.7305 21.5C27.7202 21.5 27.7098 21.5 27.6992 21.5C27.7266 21.2578 27.7266 21.2578 27.7617 21.1875C27.7823 21.1875 27.803 21.1875 27.8242 21.1875C27.8242 21.1462 27.8242 21.105 27.8242 21.0625Z" fill="white"/>
<path d="M28.543 18.4062C28.5533 18.4062 28.5636 18.4062 28.5742 18.4062C28.5441 18.8022 28.5441 18.8022 28.5117 18.9688C28.5014 18.9688 28.4911 18.9688 28.4805 18.9688C28.4805 18.8141 28.4805 18.6594 28.4805 18.5C28.5011 18.5 28.5217 18.5 28.543 18.5C28.543 18.4691 28.543 18.4381 28.543 18.4062Z" fill="white"/>
<path d="M21.8555 3.75C21.8658 3.79125 21.8761 3.8325 21.8867 3.875C21.9177 3.88531 21.9486 3.89562 21.9805 3.90625C21.9598 3.96813 21.9392 4.03 21.918 4.09375C21.887 4.06281 21.8561 4.03188 21.8242 4C21.7933 4.01547 21.7933 4.01547 21.7617 4.03125C21.7927 3.93844 21.8236 3.84562 21.8555 3.75Z" fill="white"/>
<path d="M15.0742 29.5938C15.0948 29.6041 15.1155 29.6144 15.1367 29.625C15.0404 29.7571 15.0404 29.7571 14.9805 29.8125C14.8926 29.8242 14.8926 29.8242 14.8242 29.8125C14.9029 29.7311 14.9821 29.6596 15.0742 29.5938Z" fill="white"/>
<path d="M25.0117 20.4062C25.022 20.4062 25.0323 20.4062 25.043 20.4062C25.035 20.4795 25.0244 20.5525 25.0117 20.625C24.9808 20.6405 24.9808 20.6405 24.9492 20.6562C24.9492 20.6872 24.9492 20.7181 24.9492 20.75C24.9183 20.75 24.8873 20.75 24.8555 20.75C24.9008 20.6315 24.954 20.5191 25.0117 20.4062Z" fill="white"/>
<path d="M20.6992 2.40528C20.6373 2.41559 20.5755 2.4259 20.5117 2.43653C20.5117 2.45715 20.5117 2.47778 20.5117 2.49903C20.4911 2.49903 20.4705 2.49903 20.4492 2.49903C20.4389 2.51965 20.4286 2.54028 20.418 2.56153C20.387 2.56153 20.3561 2.56153 20.3242 2.56153C20.3555 2.46778 20.3555 2.46778 20.459 2.41309C20.6047 2.36369 20.6047 2.36369 20.6992 2.40528Z" fill="white"/>
<path d="M21.8242 27.0312C21.8567 27.1288 21.8656 27.1585 21.8242 27.25C21.7441 27.2891 21.7441 27.2891 21.668 27.3125C21.707 27.2044 21.7516 27.1204 21.8242 27.0312Z" fill="white"/>
<path d="M21.6367 27.3125C21.647 27.3434 21.6573 27.3744 21.668 27.4063C21.7309 27.4292 21.7309 27.4292 21.793 27.4375C21.7194 27.4822 21.6842 27.5027 21.5977 27.4883C21.5796 27.4818 21.5616 27.4754 21.543 27.4688C21.5739 27.4172 21.6048 27.3656 21.6367 27.3125Z" fill="white"/>
<path d="M20.5117 2.4375C20.5736 2.4375 20.6355 2.4375 20.6992 2.4375C20.7095 2.45813 20.7198 2.47875 20.7305 2.5C20.6377 2.52063 20.5448 2.54125 20.4492 2.5625C20.4492 2.54187 20.4492 2.52125 20.4492 2.5C20.4698 2.5 20.4905 2.5 20.5117 2.5C20.5117 2.47937 20.5117 2.45875 20.5117 2.4375Z" fill="white"/>
<path d="M17.5117 27.2812C17.5117 27.3814 17.4885 27.4404 17.4492 27.5312C17.4183 27.5312 17.3873 27.5312 17.3555 27.5312C17.3983 27.4389 17.4489 27.3612 17.5117 27.2812Z" fill="white"/>
<path d="M17.7305 23C17.8244 23.0939 17.8116 23.182 17.8242 23.3125C17.7403 23.2286 17.7286 23.1445 17.6992 23.0312C17.7095 23.0209 17.7198 23.0106 17.7305 23Z" fill="white"/>
<path d="M16.5117 4.65625C16.5781 4.66797 16.5781 4.66797 16.6367 4.6875C16.6116 4.70168 16.5864 4.71586 16.5605 4.73047C16.4777 4.77335 16.4777 4.77335 16.4492 4.84375C16.4286 4.84375 16.408 4.84375 16.3867 4.84375C16.4227 4.76662 16.4507 4.71726 16.5117 4.65625Z" fill="white"/>
<path d="M20.5117 4.46875C20.5736 4.48938 20.6355 4.51 20.6992 4.53125C20.6889 4.55188 20.6786 4.5725 20.668 4.59375C20.6164 4.59375 20.5648 4.59375 20.5117 4.59375C20.5117 4.5525 20.5117 4.51125 20.5117 4.46875Z" fill="white"/>
<path d="M24.418 21.375C24.4395 21.4316 24.4395 21.4316 24.4492 21.5C24.4082 21.5547 24.4082 21.5547 24.3555 21.5938C24.3348 21.5938 24.3142 21.5938 24.293 21.5938C24.3265 21.5027 24.3485 21.4444 24.418 21.375Z" fill="white"/>
<path d="M13.7306 6.375C13.7409 6.39563 13.7512 6.41625 13.7619 6.4375C13.7326 6.51124 13.7014 6.58426 13.6681 6.65625C13.6578 6.65625 13.6475 6.65625 13.6369 6.65625C13.6253 6.48317 13.6253 6.48317 13.6837 6.41016C13.6992 6.39855 13.7147 6.38695 13.7306 6.375Z" fill="white"/>
<path d="M19.918 4.0625C19.9785 4.07227 19.9785 4.07227 20.043 4.09375C20.0533 4.12469 20.0636 4.15563 20.0742 4.1875C20.0433 4.19781 20.0123 4.20812 19.9805 4.21875C19.9598 4.19813 19.9392 4.1775 19.918 4.15625C19.918 4.12531 19.918 4.09437 19.918 4.0625Z" fill="white"/>
<path d="M21.5742 2.625C21.6155 2.64563 21.6567 2.66625 21.6992 2.6875C21.6786 2.70813 21.658 2.72875 21.6367 2.75C21.6367 2.78094 21.6367 2.81188 21.6367 2.84375C21.5955 2.79219 21.5542 2.74063 21.5117 2.6875C21.5323 2.6875 21.553 2.6875 21.5742 2.6875C21.5742 2.66687 21.5742 2.64625 21.5742 2.625Z" fill="white"/>
</g>
<defs>
<filter id="filter0_d_13_5251" x="-3.01953" y="0" width="40" height="40" filterUnits="userSpaceOnUse" color-interpolation-filters="sRGB">
<feFlood flood-opacity="0" result="BackgroundImageFix"/>
<feColorMatrix in="SourceAlpha" type="matrix" values="0 0 0 0 0 0 0 0 0 0 0 0 0 0 0 0 0 0 127 0" result="hardAlpha"/>
<feOffset dy="4"/>
<feGaussianBlur stdDeviation="2"/>
<feComposite in2="hardAlpha" operator="out"/>
<feColorMatrix type="matrix" values="0 0 0 0 0 0 0 0 0 0 0 0 0 0 0 0 0 0 0.25 0"/>
<feBlend mode="normal" in2="BackgroundImageFix" result="effect1_dropShadow_13_5251"/>
<feBlend mode="normal" in="SourceGraphic" in2="effect1_dropShadow_13_5251" result="shape"/>
</filter>
</defs>
</svg>
